<?xml version="1.0" encoding="UTF-8" standalone="no"?>
<svg width="100mm" height="200mm" viewBox="0 0 100 200" version="1.1" id="logo_t2b" xmlns="http://www.w3.org/2000/svg" xmlns:svg="http://www.w3.org/2000/svg" xmlns:rdf="http://www.w3.org/1999/02/22-rdf-syntax-ns#" xmlns:cc="http://creativecommons.org/ns#">
    <defs id="defs1" />
    <g id="layer1">
        <path id="rect1"
            style="fill:#d40000;stroke-width:0.222948"
            d="M 0 0 L 0 200.0002 L 100.0001 200.0002 L 100.0001 0 L 0 0 z M 49.355644 31.984094 C 59.890731 31.984094 67.280648 37.175694 67.280648 46.119149 C 67.280648 52.63726 63.377176 55.782646 58.79176 58.96591 C 55.684289 61.23967 54.206681 62.565866 53.031905 65.256482 C 51.743441 67.530242 50.757965 69.273291 47.612598 69.273291 C 44.27775 69.273291 42.610319 67.189177 42.610319 64.460665 C 42.610319 60.405793 44.618816 57.790955 49.31792 54.228731 C 52.652768 51.6897 55.002327 49.984369 55.002327 46.839001 C 55.002327 43.390466 51.781158 41.38197 48.181038 41.38197 C 45.225151 41.38197 42.951209 42.480959 41.170097 44.792615 C 39.881633 46.118975 38.85878 46.839001 37.115564 46.839001 C 34.235468 46.839001 32.757174 44.830507 32.757174 42.518852 C 32.757174 40.1693 34.083538 37.782187 36.167818 35.96318 C 38.972122 33.537836 43.443868 31.984094 49.355644 31.984094 z M 47.536633 73.442029 C 51.174649 73.442029 54.130546 75.791761 54.130546 79.429777 C 54.130546 83.067793 51.174649 85.417008 47.536633 85.417008 C 43.898618 85.417008 40.904997 83.067793 40.904997 79.429777 C 40.904997 75.791761 43.898618 73.442029 47.536633 73.442029 z M 32.927706 93.118864 L 67.034151 93.118864 C 70.368999 93.118864 72.453459 94.900155 72.453459 97.742354 C 72.453459 100.54666 70.368999 102.3276 67.034151 102.3276 L 32.927706 102.3276 C 29.592858 102.3276 27.546639 100.58455 27.546639 97.742354 C 27.546639 94.938051 29.592858 93.118864 32.927706 93.118864 z M 57.332935 110.2248 C 64.50791 110.2248 68.095585 114.93638 68.095585 124.35985 L 68.095585 126.86099 L 72.07467 126.86099 L 72.07467 135.34988 L 68.095585 135.34988 L 68.095585 145.77146 C 68.095585 150.47057 67.678727 154.15895 66.845015 156.83694 C 65.657608 160.6518 63.45963 163.51893 60.251103 165.439 C 57.396271 167.15695 54.023513 168.0161 50.132857 168.0161 C 46.343258 168.0161 43.033315 167.24572 40.203748 165.70461 C 37.020484 163.98666 34.810047 161.47254 33.572111 158.16296 C 32.435231 155.15654 31.866789 151.02638 31.866789 145.77146 L 31.866789 126.86099 L 42.515751 126.86099 L 42.515751 147.47679 C 42.515751 151.08954 42.894713 153.75473 43.652633 155.47268 C 44.789513 158.04961 46.898721 159.33808 49.980929 159.33808 C 53.063136 159.33808 55.172861 158.03663 56.309741 155.43444 C 57.067661 153.71649 57.446623 151.06427 57.446623 147.47679 L 57.446623 135.34988 L 56.499394 135.34988 C 53.114018 135.34988 50.473747 134.08684 48.578947 131.56045 C 46.886259 129.33721 46.040084 126.5329 46.040084 123.14752 C 46.040084 119.45898 46.949592 116.45221 48.768599 114.12792 C 50.764455 111.52573 53.619127 110.2248 57.332935 110.2248 z M 55.627612 118.78913 C 54.28862 118.78913 53.618949 120.1155 53.618949 122.76822 C 53.618949 125.49673 54.566353 126.86099 56.461153 126.86099 L 57.446623 126.86099 L 57.446623 122.99559 C 57.446623 120.19129 56.840284 118.78913 55.627612 118.78913 z "
        />
    </g>
</svg>
