<svg class="header-logo w-19 xl:w-32.5 h-auto" fill="none" xmlns="http://www.w3.org/2000/svg" viewBox="0 0 520 520"> <g clip-path="url(#clip0_1328_73729)"> <path d="M511.599 0H0V520H520V0H511.599Z" fill="white"/> <path d="M511.599 8.40088H8.40065V511.6H511.599V8.40088Z" fill="black"/> <path d="M61.3247 363.748C59.6446 357.867 56.2843 354.507 50.4039 354.507C41.1632 354.507 36.1228 362.908 36.1228 371.308C36.1228 379.709 41.1632 388.11 50.4039 388.11C56.2843 388.11 61.3247 383.069 62.1648 376.349H67.2052C65.525 385.59 59.6446 391.47 50.4039 391.47C37.8029 391.47 31.9225 382.229 31.9225 370.468C31.9225 358.708 38.643 349.467 50.4039 349.467C58.8045 349.467 65.525 353.667 66.3651 362.908H61.3247V363.748Z" fill="white"/> <path d="M80.6462 351.147H85.6866V390.63H80.6462V351.147ZM80.6462 335.186H85.6866V342.746H80.6462V335.186Z" fill="white"/> <path d="M110.889 351.147H119.289V355.347H110.889V382.23C110.889 385.59 111.729 387.27 115.089 387.27C116.769 387.27 117.609 387.27 119.289 387.27V391.47C117.609 391.47 116.769 391.47 115.089 391.47C108.368 391.47 106.688 388.95 106.688 382.23V355.347H99.9677V351.147H106.688V339.386H111.729V351.147H110.889Z" fill="white"/> <path d="M128.53 351.147H134.41L147.851 384.75L160.452 351.147H165.493L147.851 397.351C145.331 404.071 143.651 405.751 137.771 405.751C136.09 405.751 135.25 405.751 134.41 405.751V401.551C135.25 401.551 136.931 401.551 137.771 401.551C141.971 401.551 142.811 399.031 144.491 395.67L146.171 391.47L128.53 351.147Z" fill="white"/> <path d="M234.378 363.748C232.698 357.867 229.338 354.507 223.457 354.507C214.216 354.507 209.176 362.908 209.176 371.308C209.176 379.709 214.216 388.11 223.457 388.11C229.338 388.11 234.378 383.069 235.218 376.349H240.258C238.578 385.59 232.698 391.47 223.457 391.47C210.856 391.47 204.976 382.229 204.976 370.468C204.976 358.708 211.696 349.467 223.457 349.467C231.858 349.467 238.578 353.667 239.418 362.908H234.378V363.748Z" fill="white"/> <path d="M257.06 370.468C257.06 378.869 262.1 387.27 271.341 387.27C280.582 387.27 285.622 378.869 285.622 370.468C285.622 362.068 280.582 353.667 271.341 353.667C261.26 353.667 257.06 362.068 257.06 370.468ZM289.822 370.468C289.822 382.229 283.102 391.47 271.341 391.47C258.74 391.47 252.859 382.229 252.859 370.468C252.859 358.708 259.58 349.467 271.341 349.467C283.102 349.467 289.822 359.548 289.822 370.468Z" fill="white"/> <path d="M309.144 335.186H304.103V390.63H309.144V335.186Z" fill="white"/> <path d="M331.826 335.186H326.785V390.63H331.826V335.186Z" fill="white"/> <path d="M377.189 367.948C377.189 360.387 372.149 353.667 364.588 353.667C357.027 353.667 351.987 360.387 351.147 367.948H377.189ZM351.147 372.148C351.147 378.869 354.507 388.11 364.588 388.11C371.309 388.11 375.509 383.909 377.189 378.029H382.229C380.549 387.269 374.669 392.31 364.588 392.31C351.987 392.31 346.947 382.229 346.947 371.308C346.947 361.227 351.987 350.307 364.588 350.307C377.189 350.307 382.229 361.227 382.229 372.988H351.147V372.148Z" fill="white"/> <path d="M425.073 370.468C425.073 362.908 421.712 353.667 412.472 353.667C403.231 353.667 399.031 362.068 399.031 370.468C399.031 378.869 403.231 386.429 412.472 386.429C420.872 386.429 425.073 378.029 425.073 370.468ZM430.113 387.269C430.113 399.03 425.913 406.591 412.472 406.591C404.911 406.591 396.51 403.231 395.67 394.83H400.711C401.551 400.711 406.591 402.391 412.472 402.391C421.712 402.391 425.073 397.35 425.073 387.269V382.229C422.552 387.269 418.352 390.63 412.472 390.63C399.871 390.63 394.83 381.389 394.83 370.468C394.83 359.547 401.551 350.307 412.472 350.307C418.352 350.307 423.393 353.667 425.073 358.707V351.987H430.113V387.269Z" fill="white"/> <path d="M475.477 367.948C475.477 360.387 470.436 353.667 462.876 353.667C455.315 353.667 450.275 360.387 449.435 367.948H475.477ZM449.435 372.148C449.435 378.869 453.635 388.11 462.876 388.11C469.596 388.11 473.796 383.909 475.477 378.029H480.517C478.837 387.269 472.956 392.31 462.876 392.31C450.275 392.31 445.234 382.229 445.234 371.308C445.234 361.227 450.275 350.307 462.876 350.307C475.477 350.307 480.517 361.227 480.517 372.988H449.435V372.148Z" fill="white"/> <path d="M57.9645 434.313C44.5234 434.313 40.3231 444.394 40.3231 456.155C40.3231 466.236 44.5234 477.997 57.9645 477.997C69.7254 477.997 74.7657 467.076 74.7657 456.155C74.7657 445.234 69.7254 434.313 57.9645 434.313ZM34.4426 430.953H40.3231V440.194C42.8433 433.473 50.4039 429.273 57.9645 429.273C73.0856 429.273 80.6462 441.874 80.6462 456.155C80.6462 470.436 73.0856 483.037 57.9645 483.037C50.4039 483.037 42.8433 478.837 40.3231 472.116V500.678H34.4426V430.953Z" fill="white"/> <path d="M105.848 411.631H99.9677V481.357H105.848V411.631Z" fill="white"/> <path d="M122.649 430.953H129.37L146.171 473.796L162.132 430.953H168.013L146.171 488.918C142.811 497.318 140.291 499.838 132.73 499.838C130.21 499.838 129.37 499.838 127.69 498.998V493.958C129.37 493.958 130.21 494.798 131.89 494.798C137.771 494.798 138.611 491.438 140.291 487.237L142.811 481.357L122.649 430.953Z" fill="white"/> <path d="M183.134 430.953H189.015V439.354C192.375 433.473 197.415 429.273 205.816 429.273C212.536 429.273 218.417 432.633 220.097 439.354C223.457 432.633 229.338 429.273 236.058 429.273C246.979 429.273 252.859 435.153 252.859 446.914V481.357H246.979V447.754C246.979 439.354 243.619 435.153 235.218 435.153C224.297 435.153 221.777 443.554 221.777 453.635V482.197H215.897V447.754C215.897 441.034 213.376 435.153 204.976 435.153C194.055 435.153 189.855 443.554 189.855 453.635V482.197H183.974V430.953H183.134Z" fill="white"/> <path d="M278.061 456.155C278.061 467.076 283.942 477.997 295.703 477.997C307.464 477.997 313.344 467.076 313.344 456.155C313.344 445.234 307.464 434.313 295.703 434.313C283.942 434.313 278.061 445.234 278.061 456.155ZM319.225 456.155C319.225 470.436 310.824 483.037 295.703 483.037C280.582 483.037 272.181 470.436 272.181 456.155C272.181 441.874 280.582 429.273 295.703 429.273C310.824 429.273 319.225 441.034 319.225 456.155Z" fill="white"/> <path d="M379.709 481.357H373.829V472.116C370.468 478.837 363.748 483.037 356.187 483.037C343.586 483.037 338.546 475.477 338.546 463.716V430.953H344.426V463.716C344.426 472.956 347.787 477.997 357.867 477.997C368.788 477.997 372.989 467.916 372.989 457.835V430.953H378.869V481.357H379.709Z" fill="white"/> <path d="M410.792 430.953H420.872V435.994H410.792V470.436C410.792 474.637 411.632 477.157 415.832 477.157C417.512 477.157 419.192 477.157 420.872 477.157V482.197C419.192 482.197 417.512 482.197 414.992 482.197C406.591 482.197 404.071 479.677 404.071 470.436V435.994H395.67V430.953H404.071V415.832H409.951V430.953H410.792Z" fill="white"/> <path d="M439.354 411.631H445.234V439.353C447.754 433.473 454.475 429.273 461.195 429.273C475.477 429.273 479.677 436.833 479.677 448.594V481.357H473.796V449.434C473.796 441.034 471.276 434.313 461.195 434.313C451.115 434.313 445.234 441.874 445.234 451.954V481.357H439.354V411.631Z" fill="white"/> <path d="M511.599 122.649C508.239 122.649 505.719 122.649 502.359 123.489C465.396 126.01 436.834 158.772 395.67 160.452C363.748 161.292 351.147 147.011 327.625 134.41C298.223 119.289 275.541 124.329 248.659 128.53C210.016 134.41 178.094 154.572 134.41 149.531C85.6866 145.331 50.4039 120.969 21.0016 119.289C16.8013 119.289 12.601 119.289 8.40065 119.289V96.6074C19.3215 94.0872 29.4023 93.2471 40.3231 95.7673C72.2456 103.328 100.808 116.769 134.41 120.129C175.574 124.329 211.696 111.729 250.339 106.688C277.221 102.488 294.863 99.9676 325.105 110.888C353.667 120.969 370.468 144.491 401.551 142.811C436.834 141.131 462.036 117.609 500.679 115.929C504.039 115.929 509.919 115.089 510.759 115.929C511.599 117.609 511.599 122.649 511.599 122.649Z" fill="white"/> </g> <defs> <clipPath id="clip0_1328_73729"> <rect width="520" height="520" fill="white"/> </clipPath> </defs> </svg>