<?xml version="1.0" encoding="UTF-8" standalone="no"?>
<svg width="200mm" height="100mm" viewBox="0 0 200 100" version="1.1" id="logo_l2r" xmlns="http://www.w3.org/2000/svg" xmlns:svg="http://www.w3.org/2000/svg">
    <defs id="defs1" />
    <g id="layer1">
    <path
        id="rect1"
        style="fill:#d40000;stroke-width:0.592754"
        d="M 0 0 L 0 100.0001 L 200.0002 100.0001 L 200.0002 0 L 0 0 z M 134.71891 15.609383 C 141.89388 15.609383 145.48156 20.320967 145.48156 29.744438 L 145.48156 32.245577 L 149.46064 32.245577 L 149.46064 40.734465 L 145.48156 40.734465 L 145.48156 51.156051 C 145.48156 55.855154 145.0647 59.543541 144.23099 62.221525 C 143.04358 66.036389 140.8456 68.904037 137.63708 70.824101 C 134.78225 72.542053 131.40949 73.400688 127.51883 73.400688 C 123.72923 73.400688 120.41929 72.630305 117.58972 71.089201 C 114.40646 69.371249 112.19602 66.857643 110.95809 63.548059 C 109.82121 60.541643 109.25276 56.410962 109.25276 51.156051 L 109.25276 32.245577 L 119.90173 32.245577 L 119.90173 52.861373 C 119.90173 56.474125 120.28069 59.139315 121.03861 60.857267 C 122.17549 63.434195 124.28469 64.722664 127.3669 64.722664 C 130.44911 64.722664 132.55884 63.421735 133.69572 60.819543 C 134.45364 59.101592 134.8326 56.448861 134.8326 52.861373 L 134.8326 40.734465 L 133.88537 40.734465 C 130.49999 40.734465 127.85972 39.471431 125.96492 36.945032 C 124.27223 34.7218 123.42606 31.917484 123.42606 28.532109 C 123.42606 24.843565 124.33557 21.836792 126.15457 19.512504 C 128.15043 16.910312 131.0051 15.609383 134.71891 15.609383 z M 96.551729 18.034558 L 107.50403 18.034558 L 88.820935 84.390715 L 77.869149 84.390715 L 96.551729 18.034558 z M 68.483675 19.815845 C 77.99557 19.815845 86.029374 24.514796 86.029374 34.064587 C 86.029374 40.810075 82.050456 43.728084 78.374544 46.22922 C 73.940713 49.223003 72.15942 50.398135 72.15942 54.453007 L 72.15942 56.272017 L 61.510457 56.272017 L 61.43501 54.528455 C 60.86657 48.692471 63.329819 44.827062 67.915234 41.90907 C 71.477458 39.597414 73.788778 38.006116 73.788778 34.671269 C 73.788778 30.843773 70.870777 29.175997 67.763306 29.175997 C 63.784226 29.175997 61.624318 31.942758 61.586422 35.580774 L 50.558671 35.580774 C 50.066023 24.325663 59.123364 19.815845 68.483675 19.815845 z M 133.01359 24.173718 C 131.67459 24.173718 131.00492 25.500084 131.00492 28.152804 C 131.00492 30.881315 131.95233 32.245577 133.84713 32.245577 L 134.8326 32.245577 L 134.8326 28.38018 C 134.8326 25.575876 134.22626 24.173718 133.01359 24.173718 z M 67.157141 60.781303 C 71.780453 60.781303 74.698283 63.282792 74.698283 67.072392 C 74.698283 70.786199 71.818349 73.287 67.157141 73.287 C 62.647518 73.287 59.729687 70.786199 59.729687 67.072392 C 59.729687 63.282792 62.609622 60.781303 67.157141 60.781303 z " />
    </g>
</svg>
