<svg xmlns="http://www.w3.org/2000/svg" id="Layer_1" data-name="Layer 1" viewBox="278.21 227.37 443.58 545.26"><defs><style>.cls-1{fill:#fff;}.cls-2{fill:#010101;}.cls-3{fill:#020202;}</style></defs><path class="cls-1" d="M721.79,345V227.37H278.67V344.05c0,37.68,0,56.75,1.36,101.24,16.35,191.59,141.2,286.48,220.65,327.34,79-41.31,204.76-136.2,220.65-327.34.46-43.58.46-62.65.46-100.34"/><path class="cls-1" d="M703.62,444.84c1.37-43.13,1.37-62.2,1.37-97.16V244.16H295V347.68c0,35.87,0,54.48,1.37,97.16C311.36,623.72,428,713.61,499.77,752.2,572,713.61,688.64,623.72,703.62,444.84"/><path class="cls-2" d="M714.52,445.75c-16.34,187.5-139.83,281.48-213.84,320.53-74.46-39.95-198.4-133-213.84-320.53-1.81-44.5-1.81-64-1.36-100.8V234.18H716.34V345c-.46,36.33-.46,55.85-1.82,100.8M721.79,345V227.37H278.21V344.05c0,37.68,0,56.75,1.37,101.24,16.34,191.59,141.19,286.48,220.65,327.34,79-41.31,204.76-136.2,220.65-327.34.91-43.58.91-62.65.91-100.34"/><path class="cls-3" d="M431.67,620.54c-4.54-.45-5.9-5.9-7.26-9.53-1.82-4.54-8.18-5.45-14.08-1.82,2.73-6.81,10.9-9.53,16.35-6.81,9.53,3.18,5.45,10,13.62,11.35-1.82-4.54,1.81-8.17,4.08-10.9,3.18-4.08.46-9.53-5.44-12.71,6.81-.45,13.62,4.54,14.07,10.9,1.36,9.53-5.9,9.53-3.18,17.7,2.73-4.08,8.17-2.72,11.35-1.81,4.54.45,8.63-4.09,8.63-11.35,4.08,5.45,2.72,14.07-1.82,17.7-7.26,5.91-11.35-.45-16.8,5.91,4.54.45,5.91,5.9,7.27,9.53,1.81,4.54,8.17,5.45,14.07,1.82-2.72,6.81-10.89,9.53-16.34,6.81-9.54-3.18-5.45-10-13.62-11.35,1.81,4.54-1.82,8.17-4.09,10.89-3.18,4.09-.45,9.54,5.45,12.72-6.81.45-13.62-4.54-14.07-10.9-1.37-10,5.9-9.54,3.17-17.71-2.72,4.09-8.17,2.73-11.35,1.82-4.54-.46-8.62,4.08-8.62,11.35-4.09-5.45-2.73-14.08,1.81-17.71,7.72-6.81,11.81,0,16.8-5.9m58.11,69.92c-4.54-.46-5.9-5.9-7.26-9.54-1.82-4.54-8.17-5.44-14.07-1.81,2.72-6.81,10.89-9.54,16.34-6.81,9.53,3.18,5.45,10,13.62,11.35-1.82-4.54,1.82-8.17,4.09-10.9,3.18-4.08.45-9.53-5.45-12.71,6.81-.45,13.62,4.54,14.07,10.9,1.37,9.53-5.9,9.53-3.17,17.7,2.72-4.08,8.17-2.72,11.35-1.81,4.54.45,8.62-4.09,8.62-11.35,4.09,5.44,2.73,14.07-1.81,17.7-7.27,5.9-11.35-.45-16.8,5.9,4.54.46,5.9,5.91,7.26,9.54,1.82,4.54,8.17,5.45,14.08,1.81-2.73,6.81-10.9,9.54-16.35,6.81-9.53-3.17-5.45-10-13.62-11.35,1.82,4.54-1.81,8.18-4.09,10.9-3.17,4.09-.45,9.54,5.45,12.71-6.81.46-13.62-4.54-14.07-10.89-1.36-9.54,5.9-9.54,3.18-17.71-2.73,4.09-8.18,2.72-11.35,1.82-4.54-.46-8.63,4.08-8.63,11.35-4.09-5.45-2.72-14.08,1.82-17.71,7.71-5.9,11.8.91,16.79-5.9m38.14-46.31c-4.08-5.45-2.72-14.08,1.82-17.71,7.26-5.9,11.35.46,16.8-5.9-4.54-.45-5.91-5.9-7.27-9.53-1.81-4.54-8.17-5.45-14.07-1.82,2.72-6.81,10.89-9.53,16.34-6.81,9.54,3.18,5.45,10,13.62,11.35-1.81-4.54,1.82-8.17,4.09-10.9,3.18-4.08.45-9.53-5.45-12.71,6.81-.45,13.62,4.54,14.07,10.9,1.37,9.53-5.9,9.53-3.17,17.7,2.72-4.08,8.17-2.72,11.35-1.81,4.54.45,8.62-4.09,8.62-11.35,4.09,5.45,2.73,14.07-1.81,17.7-7.27,5.91-11.35-.45-16.8,5.91,4.54.45,5.9,5.9,7.26,9.53,1.82,4.54,8.18,5.45,14.08,1.82-2.73,6.81-10.9,9.53-16.35,6.81-9.53-3.18-5.45-10-13.62-11.35,1.82,4.54-1.81,8.17-4.08,10.89-2.73,4.09-.46,9.54,5.44,12.72-6.81.45-13.62-4.54-14.07-10.9-1.36-9.54,5.9-9.54,3.18-17.71-2.73,4.09-8.17,2.73-11.35,1.82-4.54-.91-8.63,3.63-8.63,11.35M339.05,594.66c44.5,83.09,112.6,131.67,160.72,157.54a491.46,491.46,0,0,0,64.93-42.67c34.5-27.7,69.46-64.93,95.79-114.87-20.88,2.73-48.12-.45-69-9.53-41.77-17.71-69-16.8-92.62,1.36-23.6-18.16-50.84-19.07-92.61-1.36-20,8.17-46.31,11.8-67.2,9.53"/><path class="cls-3" d="M609.19,295.47c4.54.45,5.9,5.9,7.26,9.53,1.82,4.54,8.18,5.45,14.08,1.82-2.73,6.81-10.9,9.53-16.35,6.81-9.53-3.18-5.44-10-13.62-11.35,1.82,4.54-1.81,8.17-4.08,10.89-3.18,4.09-.46,9.54,5.45,12.72-6.81.45-13.62-4.54-14.08-10.9-1.36-9.53,5.9-9.53,3.18-17.71-2.72,4.09-8.17,2.73-11.35,1.82-4.54-.45-8.63,4.09-8.63,11.35-4.08-5.45-2.72-14.07,1.82-17.71,7.26-5.9,11.35.46,16.8-5.9-4.54-.45-5.9-5.9-7.27-9.53-1.81-4.54-8.17-5.45-14.07-1.82,2.72-6.81,10.9-9.53,16.34-6.81,9.54,3.18,5.45,10,13.62,11.35-1.81-4.54,1.82-8.17,4.09-10.9,3.18-4.08.45-9.53-5.45-12.71,6.81-.45,13.62,4.54,14.08,10.9,1.36,9.53-5.91,9.53-3.18,17.71,2.72-4.09,8.17-2.73,11.35-1.82,4.54.45,8.62-4.09,8.62-11.35,4.09,5.45,2.73,14.07-1.81,17.71-8.17,5.9-12.26-.91-16.8,5.9m-98.52,0c4.54.45,5.9,5.9,7.26,9.53,1.82,4.54,8.18,5.45,14.08,1.82-2.73,6.81-10.9,9.53-16.35,6.81-9.53-3.18-5.44-10-13.62-11.35,1.82,4.54-1.81,8.17-4.08,10.89-3.18,4.09-.46,9.54,5.45,12.72-6.82.45-13.63-4.54-14.08-10.9-1.36-9.53,5.9-9.53,3.18-17.71-2.73,4.09-8.17,2.73-11.35,1.82-4.54-.45-8.63,4.09-8.63,11.35-4.08-5.45-2.72-14.07,1.82-17.71,7.26-5.9,11.35.46,16.8-5.9-4.54-.45-5.91-5.9-7.27-9.53-1.81-4.54-8.17-5.45-14.07-1.82,2.72-6.81,10.89-9.53,16.34-6.81,9.54,3.18,5.45,10,13.62,11.35-1.81-4.54,1.82-8.17,4.09-10.9,3.18-4.08.45-9.53-5.45-12.71,6.81-.45,13.62,4.54,14.08,10.9,1.36,9.53-5.91,9.53-3.18,17.71,2.72-4.09,8.17-2.73,11.35-1.82,4.54.45,8.62-4.09,8.62-11.35,4.09,5.45,2.73,14.07-1.81,17.71-8.17,5.9-11.35-.91-16.8,5.9m-94.89,0c4.54.45,5.9,5.9,7.26,9.53,1.82,4.54,8.18,5.45,14.08,1.82-2.72,6.81-10.9,9.53-16.35,6.81-9.53-3.18-5.44-10-13.62-11.35,1.82,4.54-1.81,8.17-4.08,10.89-3.18,4.09-.46,9.54,5.45,12.72-6.81.45-13.62-4.54-14.08-10.9-1.36-9.53,5.9-9.53,3.18-17.71-2.72,4.09-8.17,2.73-11.35,1.82-4.54-.45-8.63,4.09-8.63,11.35-4.08-5.45-2.72-14.07,1.82-17.71,7.26-5.9,11.35.46,16.8-5.9-4.54-.45-5.9-5.9-7.27-9.53-1.81-4.54-8.17-5.45-14.07-1.82,2.72-6.81,10.9-9.53,16.34-6.81,9.54,3.18,5.45,10,13.62,11.35-1.81-4.54,1.82-8.17,4.09-10.9,3.18-4.08.45-9.53-5.45-12.71,6.81-.45,13.62,4.54,14.08,10.9,1.36,9.53-5.91,9.53-3.18,17.71,2.72-4.09,8.17-2.73,11.35-1.82,4.54.45,8.63-4.09,8.63-11.35,4.08,5.45,2.72,14.07-1.82,17.71-7.72,5.9-11.81-.91-16.8,5.9M649.14,364C678.65,364,705,345,705,345V303.19c-.46-.46-1.82-.46-3.18-1.37,1.81,4.54-1.82,8.18-4.09,10.9-2.72,4.09-.45,9.53,5.45,12.71-6.81.46-13.62-4.54-14.07-10.89-1.37-9.54,5.9-9.54,3.17-17.71-2.72,4.09-8.17,2.72-11.35,1.82-4.54-.46-8.62,4.08-8.62,11.35-4.09-5.45-2.73-14.08,1.81-17.71,7.27-5.9,11.35.45,16.8-5.9-4.54-.46-5.9-5.9-7.26-9.54-1.82-4.54-8.17-5.45-14.08-1.81,2.73-6.81,10.9-9.54,16.35-6.81,9.53,3.17,5.45,10,13.62,11.35-1.82-4.54,1.81-8.18,4.08-10.9,3.18-4.09.46-9.53-5.44-12.71,2.72-.46,5.44.45,8.17,1.81V244.16H295v35c1.37.46,1.82,1.36,3.18,1.36-1.81-4.54,1.82-8.17,4.09-10.89,3.18-4.09.45-9.54-5.45-12.71,6.81-.46,13.62,4.54,14.07,10.89,1.82,9.54-5.9,9.54-2.72,16.8,2.72-4.08,8.17-2.72,11.35-1.81,4.54.45,8.63-4.09,8.63-11.36,4.08,5.45,2.72,14.08-1.82,17.71-8.17,6.81-11.35,0-16.8,6.81,4.54.46,5.9,5.9,7.27,9.54,1.81,4.54,8.17,5.44,14.07,1.81-2.72,6.81-10.9,9.54-16.34,6.81-9.54-3.18-5.45-10-13.62-11.35,1.81,4.54-1.82,8.17-4.09,10.9-3.18,4.08-.45,9.53,5.45,12.71A9.7,9.7,0,0,1,295,325v20.43s26.34,19.07,55.85,19.07c56.75,0,64-26.79,111.23-26.79,20.43,0,37.23,15.44,37.23,15.44s17.71-15.44,37.23-15.44c48.12-.91,55.84,26.33,112.59,26.33"/><path class="cls-3" d="M351.31,466.63c6.81-5.9,14.08-12.71,14.08-12.71l-8.63-7.27c-.45-.45-.45-1.36-.45-2.72,0-.45.45-1.36,1.81-1.36H369a6.54,6.54,0,0,1,5.45-4.09,5.33,5.33,0,0,1,5.44,4.09h11.35a2.41,2.41,0,0,1,1.82,1.36,6.77,6.77,0,0,1-.45,2.72l-8.18,7.27c.46.45,7.27,6.81,14.08,12.71,1.36.45,12.26,8.63,6.81,18.16-2.73,4.54-6.81,4.09-6.81,4.09s-1.36,7.26-8.63,8.62a7.59,7.59,0,0,1-5.45-1.36,9.68,9.68,0,0,1-4.54,4.09,14.1,14.1,0,0,1-4.54.45,10.81,10.81,0,0,1-9.53-5.45s-2.72,2.73-5.9,1.82c-7.27-1.36-8.63-8.63-8.63-8.63a8.8,8.8,0,0,1-6.81-4.08c-5.45-8.63,5.45-16.35,6.81-17.71m124.85,0c6.81-5.9,14.08-12.71,14.08-12.71l-8.63-7.27c-.45-.45-.45-1.36-.45-2.72,0-.45.45-1.36,1.81-1.36h10.9a6.54,6.54,0,0,1,5.45-4.09,5.34,5.34,0,0,1,5.45,4.09h11.35a2.42,2.42,0,0,1,1.81,1.36,6.77,6.77,0,0,1-.45,2.72l-8.17,7.27c.45.45,7.26,6.81,14.07,12.71,1.36.45,12.26,8.63,6.81,18.16-2.72,4.54-6.81,4.09-6.81,4.09a11.82,11.82,0,0,1-8.62,8.62,7.59,7.59,0,0,1-5.45-1.36,9.68,9.68,0,0,1-4.54,4.09,14.13,14.13,0,0,1-4.54.45,10.83,10.83,0,0,1-9.54-5.45,6.64,6.64,0,0,1-5.45,1.36c-7.26-1.36-8.62-8.62-8.62-8.62a8.79,8.79,0,0,1-6.81-4.09c-5.9-8.17,5.45-15.89,6.35-17.25m125.31,0c6.81-5.9,14.08-12.71,14.08-12.71l-8.63-7.27c-.45-.45-.45-1.36-.45-2.72,0-.45.45-1.36,1.81-1.36h10.9a6.54,6.54,0,0,1,5.45-4.09,5.33,5.33,0,0,1,5.44,4.09h11.35a2.41,2.41,0,0,1,1.82,1.36c.45.91,0,1.82-.45,2.72l-8.18,7.27c.46.45,7.27,6.81,14.08,12.71,1.36.45,12.26,8.63,6.81,18.16-2.72,4.54-6.81,4.09-6.81,4.09s-1.36,7.26-8.63,8.62a7.59,7.59,0,0,1-5.45-1.36,9.68,9.68,0,0,1-4.54,4.09,14.1,14.1,0,0,1-4.54.45,10.81,10.81,0,0,1-9.53-5.45,6.66,6.66,0,0,1-5.45,1.36c-7.26-1.36-8.62-8.62-8.62-8.62a8.79,8.79,0,0,1-6.81-4.09c-5.45-8.17,5-15.89,6.35-17.25M295,408.52c0,10.89.46,22.24.46,37.23a440.16,440.16,0,0,0,15.43,82.17,110.9,110.9,0,0,0,41.77,8.63,114.58,114.58,0,0,0,53.58-13.62c34.5-19.07,59.47-19.07,91.25,0l1.36.45h0l1.37-.45c31.78-18.16,56.75-18.16,91.25,0,16.8,8.62,35,13.62,53.58,13.62a113.63,113.63,0,0,0,42.67-8.63,434.41,434.41,0,0,0,15.44-81.72c.45-15,.45-26.79.45-37.68-35.86,18.16-70.37,19.52-108,5.44-35.87-12.71-66.29-16.34-97.16,10h0c-30.87-26.33-61.29-23.15-97.16-10-36.77,12.72-70.37,11.35-106.24-5.44"/></svg>